<svg id="svg-source" height="0" version="1.1" 
  xmlns="http://www.w3.org/2000/svg" style="position:absolute; margin-left: -100%" 
  xmlns:xlink="http://www.w3.org/1999/xlink">
  <g id="remote-control" data-iconmelon="Streamline Icon Set:0d0b51b67249a267a2dc9b25b48220fe">
    <g id="Expanded">
      <g>
        <g>
          <path  d="M27.06,32c-0.199,0-0.396-0.089-0.527-0.257l-3.631-4.669l-0.141-0.409v-6.078
				c0-1.62-0.853-2.327-2.723-3.876c-0.323-0.268-0.672-0.557-1.043-0.874c-0.28-0.239-0.313-0.66-0.075-0.94
				c0.239-0.28,0.66-0.314,0.94-0.075c0.366,0.312,0.709,0.597,1.028,0.861c1.931,1.599,3.206,2.656,3.206,4.904v5.85l3.491,4.487
				c0.227,0.291,0.173,0.71-0.117,0.936C27.347,31.954,27.203,32,27.06,32z"></path>
        </g>
        <g>
          <path  d="M19.523,31.999c-0.208,0-0.413-0.098-0.543-0.279l-0.684-0.956c-0.568-0.797-0.87-1.736-0.87-2.714
				v-1.843l-2.85-4.118c-0.765-0.814-0.75-2.101,0.045-2.896c0.812-0.812,2.132-0.812,2.943,0l3.667,3.667
				c0.261,0.261,0.261,0.683,0,0.942c-0.261,0.261-0.682,0.261-0.943,0l-3.667-3.667c-0.291-0.292-0.765-0.292-1.057,0
				c-0.291,0.292-0.291,0.766,0,1.057l0.076,0.092l3.001,4.334l0.118,0.38v2.052c0,0.699,0.215,1.369,0.622,1.938l0.683,0.956
				c0.214,0.3,0.145,0.717-0.154,0.93C19.792,31.958,19.657,31.999,19.523,31.999z"></path>
        </g>
        <g>
          <path  d="M18.094,29.332H8.092c-1.471,0-2.667-1.196-2.667-2.667V11.996c0-1.471,1.196-2.667,2.667-2.667h9.334
				c1.471,0,2.667,1.196,2.667,2.667v10.001h-1.333V11.996c0-0.735-0.599-1.333-1.334-1.333H8.092c-0.735,0-1.333,0.598-1.333,1.333
				v14.669c0,0.734,0.598,1.333,1.333,1.333h10.001V29.332z"></path>
        </g>
        <g>
          <path  d="M16.531,8.224c-1.007-1.007-2.347-1.562-3.771-1.562c-1.425,0-2.765,0.555-3.771,1.562L8.045,7.282
				c1.259-1.259,2.934-1.953,4.714-1.953s3.455,0.694,4.714,1.953L16.531,8.224z"></path>
        </g>
        <g>
          <path  d="M18.417,6.339c-3.119-3.12-8.196-3.12-11.315,0L6.16,5.396c3.639-3.64,9.562-3.64,13.201,0L18.417,6.339z
				"></path>
        </g>
        <g>
          <path  d="M20.303,4.453c-4.158-4.159-10.928-4.159-15.086,0L4.273,3.51c4.68-4.68,12.293-4.68,16.973,0
				L20.303,4.453z"></path>
        </g>
        <g>
          <path  d="M10.093,13.33c-0.368,0-0.667,0.299-0.667,0.667c0,0.368,0.299,0.667,0.667,0.667
				s0.667-0.299,0.667-0.667C10.759,13.628,10.461,13.33,10.093,13.33L10.093,13.33z"></path>
        </g>
        <g>
          <path  d="M12.76,13.33c-0.368,0-0.667,0.299-0.667,0.667c0,0.368,0.299,0.667,0.667,0.667s0.667-0.299,0.667-0.667
				C13.426,13.628,13.128,13.33,12.76,13.33L12.76,13.33z"></path>
        </g>
        <g>
          <path  d="M15.427,13.33c-0.368,0-0.667,0.299-0.667,0.667c0,0.368,0.299,0.667,0.667,0.667
				s0.667-0.299,0.667-0.667C16.094,13.628,15.795,13.33,15.427,13.33L15.427,13.33z"></path>
        </g>
        <g>
          <path  d="M10.093,15.996c-0.368,0-0.667,0.299-0.667,0.667s0.299,0.667,0.667,0.667s0.667-0.299,0.667-0.667
				S10.461,15.996,10.093,15.996L10.093,15.996z"></path>
        </g>
        <g>
          <path  d="M12.76,15.996c-0.368,0-0.667,0.299-0.667,0.667s0.299,0.667,0.667,0.667s0.667-0.299,0.667-0.667
				S13.128,15.996,12.76,15.996L12.76,15.996z"></path>
        </g>
        <g>
          <path  d="M10.093,18.664c-0.368,0-0.667,0.299-0.667,0.666c0,0.368,0.299,0.667,0.667,0.667
				s0.667-0.299,0.667-0.667C10.759,18.963,10.461,18.664,10.093,18.664L10.093,18.664z"></path>
        </g>
        <g>
          <path  d="M12.76,18.664c-0.368,0-0.667,0.299-0.667,0.666c0,0.368,0.299,0.667,0.667,0.667
				s0.667-0.299,0.667-0.667C13.426,18.963,13.128,18.664,12.76,18.664L12.76,18.664z"></path>
        </g>
        <g>
          <path  d="M10.093,21.331c-0.368,0-0.667,0.299-0.667,0.666c0,0.368,0.299,0.667,0.667,0.667
				s0.667-0.299,0.667-0.667C10.759,21.63,10.461,21.331,10.093,21.331L10.093,21.331z"></path>
        </g>
        <g>
          <path  d="M12.76,21.331c-0.368,0-0.667,0.299-0.667,0.666c0,0.368,0.299,0.667,0.667,0.667
				s0.667-0.299,0.667-0.667C13.426,21.63,13.128,21.331,12.76,21.331L12.76,21.331z"></path>
        </g>
        <g>
          <path  d="M10.093,23.998c-0.368,0-0.667,0.299-0.667,0.666c0,0.368,0.299,0.667,0.667,0.667
				s0.667-0.299,0.667-0.667C10.759,24.297,10.461,23.998,10.093,23.998L10.093,23.998z"></path>
        </g>
        <g>
          <path  d="M12.76,23.998c-0.368,0-0.667,0.299-0.667,0.666c0,0.368,0.299,0.667,0.667,0.667
				s0.667-0.299,0.667-0.667C13.426,24.297,13.128,23.998,12.76,23.998L12.76,23.998z"></path>
        </g>
        <g>
          <path  d="M15.427,15.996c-0.368,0-0.667,0.299-0.667,0.667s0.299,0.667,0.667,0.667s0.667-0.299,0.667-0.667
				S15.795,15.996,15.427,15.996L15.427,15.996z"></path>
        </g>
      </g>
    </g>
  </g>
  <g id="happy-smiley" data-iconmelon="Streamline Icon Set:4899c398e684096163eae46cf618ad3a">
    <g id="Expanded">
      <g>
        <g>
          <path  d="M16,32C7.178,32,0,24.821,0,16C0,7.178,7.178,0,16,0c8.821,0,16,7.178,16,16C32,24.821,24.821,32,16,32z
				 M16,1.333C7.913,1.333,1.333,7.913,1.333,16c0,8.087,6.579,14.667,14.667,14.667c8.087,0,14.667-6.58,14.667-14.667
				C30.667,7.913,24.087,1.333,16,1.333z"></path>
        </g>
        <g>
          <path  d="M16,28c-5.881,0-10.667-4.785-10.667-10.667c0-0.368,0.299-0.666,0.667-0.666s0.667,0.298,0.667,0.666
				c0,5.147,4.187,9.334,9.333,9.334c5.147,0,9.333-4.187,9.333-9.334c0-0.368,0.299-0.666,0.667-0.666s0.667,0.298,0.667,0.666
				C26.667,23.215,21.882,28,16,28z"></path>
        </g>
        <g>
          <path  d="M12.667,14C12.299,14,12,13.702,12,13.333c0-1.103-0.897-2-2-2s-2,0.897-2,2C8,13.702,7.701,14,7.333,14
				c-0.368,0-0.667-0.298-0.667-0.667C6.667,11.496,8.162,10,10,10s3.333,1.496,3.333,3.333C13.333,13.702,13.035,14,12.667,14z"></path>
        </g>
        <g>
          <path  d="M24.667,14C24.299,14,24,13.702,24,13.333c0-1.103-0.897-2-2-2s-2,0.897-2,2
				C20,13.702,19.701,14,19.333,14c-0.367,0-0.666-0.298-0.666-0.667C18.667,11.496,20.162,10,22,10s3.333,1.496,3.333,3.333
				C25.333,13.702,25.034,14,24.667,14z"></path>
        </g>
      </g>
    </g>
  </g>
  <g id="coffee" data-iconmelon="Streamline Icon Set:1ce0f8ef35b4d9235759312328491a6d">
    <g id="Expanded">
      <g>
        <g>
          <path  d="M24,32H8c-0.352,0-0.643-0.273-0.665-0.625L6.002,10.042C5.99,9.858,6.055,9.677,6.181,9.543
				s0.303-0.21,0.486-0.21h18.666c0.184,0,0.36,0.076,0.486,0.21s0.191,0.314,0.18,0.498l-1.334,21.333
				C24.644,31.727,24.352,32,24,32z M8.626,30.667h14.748l1.25-20H7.376L8.626,30.667z"></path>
        </g>
        <g>
          <path  d="M26.667,10.667H5.334c-0.368,0-0.667-0.298-0.667-0.667V4.667C4.667,4.298,4.966,4,5.334,4h21.333
				c0.367,0,0.666,0.298,0.666,0.667V10C27.333,10.369,27.034,10.667,26.667,10.667z M6,9.333h20v-4H6V9.333z"></path>
        </g>
        <g>
          <path  d="M25.347,5.333c-0.004-0.001-0.009,0-0.014,0H6.667c-0.214,0-0.415-0.103-0.541-0.277
				C6.001,4.883,5.967,4.659,6.034,4.456l1.333-4C7.459,0.183,7.713,0,8,0h16c0.288,0,0.542,0.183,0.633,0.456l1.293,3.88
				c0.056,0.098,0.087,0.21,0.087,0.33C26.013,5.036,25.715,5.333,25.347,5.333z M7.592,4h16.817l-0.89-2.667H8.481L7.592,4z"></path>
        </g>
        <g>
          <path  d="M25,16H7c-0.367,0-0.666-0.298-0.666-0.667c0-0.369,0.299-0.667,0.666-0.667h18
				c0.368,0,0.667,0.298,0.667,0.667C25.667,15.702,25.368,16,25,16z"></path>
        </g>
        <g>
          <rect x="7.5" y="22.667"  width="17" height="1.333"></rect>
        </g>
        <g>
          <path  d="M18,20h-4c-0.367,0-0.666-0.298-0.666-0.667c0-0.368,0.299-0.666,0.666-0.666h4
				c0.368,0,0.667,0.298,0.667,0.666C18.667,19.702,18.368,20,18,20z"></path>
        </g>
      </g>
    </g>
  </g>
  <g id="armchair-chair" data-iconmelon="Streamline Icon Set:6c70e6307d42fdec2d39e11764852218">
    <g id="Expanded">
      <g>
        <g>
          <path  d="M25.334,18.667c-0.034,0-0.068-0.003-0.103-0.008c-0.363-0.057-0.613-0.397-0.557-0.761l1.248-8.118
				c0.326-2.117-0.287-4.264-1.682-5.89c-1.395-1.626-3.424-2.558-5.565-2.558h-5.351c-2.142,0-4.17,0.932-5.566,2.559
				C6.365,5.517,5.751,7.664,6.078,9.781l1.249,8.117c0.056,0.364-0.194,0.704-0.558,0.761c-0.363,0.052-0.705-0.193-0.76-0.558
				l-1.25-8.117c-0.385-2.503,0.34-5.04,1.988-6.961C8.395,1.102,10.792,0,13.325,0h5.35c2.532,0,4.93,1.102,6.577,3.023
				c1.649,1.921,2.373,4.458,1.987,6.96l-1.248,8.118C25.941,18.431,25.657,18.667,25.334,18.667z"></path>
        </g>
        <g>
          <path  d="M8,32c-0.368,0-0.667-0.298-0.667-0.667V30c0-0.368,0.299-0.667,0.667-0.667S8.667,29.632,8.667,30v1.333
				C8.667,31.702,8.368,32,8,32z"></path>
        </g>
        <g>
          <path  d="M24,32c-0.368,0-0.667-0.298-0.667-0.667V30c0-0.368,0.299-0.667,0.667-0.667s0.667,0.299,0.667,0.667
				v1.333C24.667,31.702,24.368,32,24,32z"></path>
        </g>
        <g>
          <path  d="M24.667,30.667H7.333c-2.573,0-4.667-2.094-4.667-4.667v-2.667c0-0.403-0.241-0.766-0.614-0.922
				C0.805,21.892,0,20.684,0,19.333C0,17.495,1.496,16,3.333,16c2.94,0,5.333,2.393,5.333,5.333v0.975
				c1.181-0.422,3.465-0.975,7.333-0.975c3.868,0,6.152,0.553,7.333,0.975v-0.975c0-2.94,2.393-5.333,5.334-5.333
				C30.505,16,32,17.495,32,19.333c0,1.351-0.806,2.56-2.053,3.078c-0.373,0.156-0.614,0.519-0.614,0.922V26
				C29.333,28.573,27.239,30.667,24.667,30.667z M3.333,17.333c-1.103,0-2,0.897-2,2c0,0.811,0.483,1.537,1.232,1.848
				C3.437,21.543,4,22.389,4,23.333V26c0,1.838,1.496,3.333,3.333,3.333h17.333C26.505,29.333,28,27.838,28,26v-2.667
				c0-0.943,0.563-1.789,1.435-2.152c0.749-0.311,1.232-1.037,1.232-1.848c0-1.103-0.897-2-2-2c-2.206,0-4,1.795-4,4v3.246
				l-1.037-0.691c-0.013-0.009-1.988-1.221-7.63-1.221c-5.642,0-7.617,1.212-7.637,1.225l-1.024,0.651l-0.006-3.21
				C7.333,19.128,5.54,17.333,3.333,17.333z"></path>
        </g>
        <g>
          <path  d="M19.333,14c-0.17,0-0.341-0.065-0.471-0.195l-1.334-1.333c-0.26-0.261-0.26-0.682,0-0.942l1.334-1.333
				c0.26-0.261,0.682-0.261,0.942,0s0.261,0.682,0,0.943L18.942,12l0.862,0.862c0.261,0.261,0.261,0.682,0,0.943
				C19.675,13.935,19.504,14,19.333,14z"></path>
        </g>
        <g>
          <path  d="M12.667,14c-0.17,0-0.341-0.065-0.471-0.195c-0.261-0.261-0.261-0.682,0-0.943L13.057,12l-0.862-0.862
				c-0.261-0.261-0.261-0.682,0-0.943s0.682-0.261,0.943,0l1.333,1.333c0.261,0.261,0.261,0.682,0,0.942l-1.333,1.333
				C13.008,13.935,12.837,14,12.667,14z"></path>
        </g>
        <g>
          <path  d="M16,14.667c-1.471,0-2.667-1.196-2.667-2.667S14.529,9.333,16,9.333s2.667,1.196,2.667,2.667
				S17.471,14.667,16,14.667z M16,10.667c-0.735,0-1.333,0.598-1.333,1.333s0.598,1.333,1.333,1.333s1.333-0.598,1.333-1.333
				S16.735,10.667,16,10.667z"></path>
        </g>
      </g>
    </g>
  </g>
  <g id="settings-adjustments" data-iconmelon="Streamline Icon Set:540ee024bb4ee9d95ace7590471c7a57">
    <g id="Expanded">
      <g>
        <g>
          <path  d="M29.333,32H2.667C1.196,32,0,30.804,0,29.333V2.667C0,1.196,1.196,0,2.667,0h26.667
				C30.804,0,32,1.196,32,2.667v26.667C32,30.804,30.804,32,29.333,32z M2.667,1.333c-0.735,0-1.333,0.598-1.333,1.333v26.667
				c0,0.736,0.598,1.334,1.333,1.334h26.667c0.736,0,1.334-0.598,1.334-1.334V2.667c0-0.735-0.598-1.333-1.334-1.333H2.667z"></path>
        </g>
        <g>
          <path  d="M16,20c-0.368,0-0.667-0.298-0.667-0.667V10c0-0.369,0.299-0.667,0.667-0.667S16.667,9.631,16.667,10
				v9.333C16.667,19.702,16.368,20,16,20z"></path>
        </g>
        <g>
          <path  d="M22.667,20C22.299,20,22,19.702,22,19.333v-2.666C22,16.298,22.299,16,22.667,16
				c0.367,0,0.666,0.298,0.666,0.667v2.666C23.333,19.702,23.034,20,22.667,20z"></path>
        </g>
        <g>
          <path  d="M9.333,12c-0.368,0-0.667-0.298-0.667-0.667V4.667C8.667,4.298,8.965,4,9.333,4
				C9.701,4,10,4.298,10,4.667v6.667C10,11.702,9.701,12,9.333,12z"></path>
        </g>
        <g>
          <path  d="M9.333,20c-0.368,0-0.667-0.298-0.667-0.667V14c0-0.369,0.299-0.666,0.667-0.666
				C9.701,13.334,10,13.631,10,14v5.333C10,19.702,9.701,20,9.333,20z"></path>
        </g>
        <g>
          <path  d="M22.667,14.666C22.299,14.666,22,14.369,22,14V4.667C22,4.298,22.299,4,22.667,4
				c0.367,0,0.666,0.298,0.666,0.667V14C23.333,14.369,23.034,14.666,22.667,14.666z"></path>
        </g>
        <g>
          <path  d="M16,8c-0.368,0-0.667-0.298-0.667-0.667V4.667C15.333,4.298,15.632,4,16,4s0.667,0.298,0.667,0.667v2.667
				C16.667,7.702,16.368,8,16,8z"></path>
        </g>
        <g>
          <path  d="M24.667,17.333h-4c-0.368,0-0.667-0.298-0.667-0.666V14c0-0.369,0.299-0.666,0.667-0.666h4
				c0.367,0,0.666,0.297,0.666,0.666v2.667C25.333,17.035,25.034,17.333,24.667,17.333z M21.333,16H24v-1.334h-2.667V16z"></path>
        </g>
        <g>
          <path  d="M18,10.667h-4c-0.368,0-0.667-0.298-0.667-0.667V7.333c0-0.369,0.299-0.667,0.667-0.667h4
				c0.368,0,0.667,0.298,0.667,0.667V10C18.667,10.369,18.368,10.667,18,10.667z M14.667,9.333h2.667V8h-2.667V9.333z"></path>
        </g>
        <g>
          <path  d="M11.333,14.666h-4c-0.368,0-0.667-0.297-0.667-0.666v-2.667c0-0.369,0.299-0.667,0.667-0.667h4
				c0.368,0,0.667,0.298,0.667,0.667V14C12,14.369,11.701,14.666,11.333,14.666z M8,13.334h2.667V12H8V13.334z"></path>
        </g>
        <g>
          <path  d="M22.667,28C21.196,28,20,26.804,20,25.333s1.196-2.666,2.667-2.666s2.666,1.195,2.666,2.666
				S24.138,28,22.667,28z M22.667,24c-0.736,0-1.334,0.598-1.334,1.333c0,0.736,0.598,1.334,1.334,1.334
				c0.735,0,1.333-0.598,1.333-1.334C24,24.598,23.402,24,22.667,24z"></path>
        </g>
        <g>
          <path  d="M16,28c-1.471,0-2.667-1.196-2.667-2.667s1.196-2.666,2.667-2.666s2.667,1.195,2.667,2.666
				S17.471,28,16,28z M16,24c-0.735,0-1.333,0.598-1.333,1.333c0,0.736,0.598,1.334,1.333,1.334s1.333-0.598,1.333-1.334
				C17.333,24.598,16.735,24,16,24z"></path>
        </g>
        <g>
          <path  d="M9.333,28c-1.471,0-2.667-1.196-2.667-2.667s1.196-2.666,2.667-2.666S12,23.862,12,25.333
				S10.804,28,9.333,28z M9.333,24C8.598,24,8,24.598,8,25.333c0,0.736,0.598,1.334,1.333,1.334s1.333-0.598,1.333-1.334
				C10.667,24.598,10.069,24,9.333,24z"></path>
        </g>
      </g>
    </g>
  </g>
  <g id="home-house" data-iconmelon="Streamline Icon Set:f159615608b75fd05152d585fc1c8694">
    <g id="Expanded">
      <g>
        <g>
          <path  d="M28,31.129h-9.333v-8.668h-5.333v8.668H4v-14c0-0.369,0.298-0.667,0.667-0.667
				c0.369,0,0.667,0.299,0.667,0.667v12.666H12v-8.666h8v8.666h6.667v-12c0-0.367,0.298-0.666,0.666-0.666
				c0.369,0,0.667,0.299,0.667,0.666V31.129z"></path>
        </g>
        <g>
          <path  d="M31.333,17.129c-0.166,0-0.331-0.062-0.461-0.186L16,2.717L1.127,16.943
				c-0.266,0.254-0.688,0.247-0.943-0.021c-0.254-0.266-0.245-0.688,0.021-0.943L16,0.872l15.793,15.107
				c0.266,0.255,0.275,0.677,0.021,0.943C31.684,17.059,31.509,17.129,31.333,17.129z"></path>
        </g>
        <g>
          <path  d="M26,9.128c-0.368,0-0.667-0.299-0.667-0.667v-4h-4c-0.368,0-0.666-0.299-0.666-0.667
				s0.298-0.667,0.666-0.667h5.334v5.333C26.667,8.829,26.368,9.128,26,9.128z"></path>
        </g>
      </g>
    </g>
  </g>
  <g id="iphone" data-iconmelon="Streamline Icon Set:1979b7a228a0d514fd156d2af35a7c73">
    <g id="Expanded">
      <g>
        <g>
          <path  d="M23.333,32H8.666c-1.838,0-3.333-1.495-3.333-3.333V3.333C5.333,1.495,6.828,0,8.666,0h14.667
				c1.838,0,3.334,1.495,3.334,3.333v25.334C26.667,30.505,25.171,32,23.333,32z M8.666,1.333c-1.103,0-2,0.897-2,2v25.334
				c0,1.103,0.897,2,2,2h14.667c1.104,0,2-0.897,2-2V3.333c0-1.103-0.896-2-2-2H8.666z"></path>
        </g>
        <g>
          <path  d="M26,6.667H6C5.631,6.667,5.333,6.368,5.333,6S5.631,5.333,6,5.333h20c0.368,0,0.667,0.299,0.667,0.667
				S26.368,6.667,26,6.667z"></path>
        </g>
        <g>
          <path  d="M26,26.667H6c-0.369,0-0.667-0.299-0.667-0.667S5.631,25.333,6,25.333h20
				c0.368,0,0.667,0.299,0.667,0.667S26.368,26.667,26,26.667z"></path>
        </g>
        <g>
          <path  d="M16,27.333c-0.736,0-1.334,0.598-1.334,1.334C14.666,29.402,15.264,30,16,30
				c0.735,0,1.333-0.598,1.333-1.333C17.333,27.931,16.735,27.333,16,27.333L16,27.333z"></path>
        </g>
        <g>
          <path  d="M19.333,4h-6.667C12.298,4,12,3.701,12,3.333c0-0.367,0.298-0.666,0.666-0.666h6.667
				C19.702,2.667,20,2.966,20,3.333C20,3.701,19.702,4,19.333,4z"></path>
        </g>
      </g>
    </g>
  </g>
  <g id="computer-imac1" data-iconmelon="Streamline Icon Set:5de44c651298389a3072a96c0a7e8fe8">
    <g id="Expanded">
      <g>
        <g>
          <path  d="M29.333,27.333H2.667C1.196,27.333,0,26.084,0,24.549V4.785C0,3.25,1.196,2,2.667,2h26.667
				C30.804,2,32,3.25,32,4.785v19.764C32,26.084,30.804,27.333,29.333,27.333z M2.667,3.333c-0.735,0-1.333,0.651-1.333,1.451
				v19.764c0,0.8,0.598,1.451,1.333,1.451h26.667c0.736,0,1.334-0.651,1.334-1.451V4.785c0-0.8-0.598-1.451-1.334-1.451H2.667z"></path>
        </g>
        <g>
          <path  d="M25.333,30H6.667C6.299,30,6,29.701,6,29.333c0-0.367,0.299-0.666,0.667-0.666h18.667
				c0.368,0,0.667,0.299,0.667,0.666C26,29.701,25.701,30,25.333,30z"></path>
        </g>
        <g>
          <path  d="M16,30c-0.368,0-0.667-0.299-0.667-0.667v-2.666C15.333,26.299,15.632,26,16,26s0.667,0.299,0.667,0.667
				v2.666C16.667,29.701,16.368,30,16,30z"></path>
        </g>
        <g>
          <circle  cx="16" cy="24" r="1.333"></circle>
        </g>
        <g>
          <rect x="0.667" y="20.667"  width="30.667" height="1.333"></rect>
        </g>
      </g>
    </g>
  </g>
  <g id="ipad" data-iconmelon="Streamline Icon Set:7a5cddcb31effb2571850b6795c9e4ce">
    <g id="Expanded">
      <g>
        <g>
          <path  d="M25.062,30.5H6.938c-1.665,0-3.021-1.354-3.021-3.021V4.521c0-1.666,1.355-3.021,3.021-3.021h18.125
				c1.665,0,3.021,1.355,3.021,3.021v22.958C28.083,29.146,26.728,30.5,25.062,30.5z M6.938,2.708c-0.998,0-1.812,0.813-1.812,1.812
				v22.958c0,0.998,0.814,1.812,1.812,1.812h18.125c1,0,1.812-0.814,1.812-1.812V4.521c0-1-0.812-1.812-1.812-1.812H6.938z"></path>
        </g>
        <g>
          <path  d="M16.102,26.271c-0.668,0-1.209,0.54-1.209,1.209c0,0.667,0.541,1.208,1.209,1.208
				c0.667,0,1.208-0.541,1.208-1.208C17.31,26.811,16.769,26.271,16.102,26.271L16.102,26.271z"></path>
        </g>
        <g>
          <path  d="M25.062,25.667H6.938c-0.333,0-0.604-0.271-0.604-0.604V5.729c0-0.333,0.271-0.604,0.604-0.604h18.125
				c0.333,0,0.604,0.271,0.604,0.604v19.333C25.667,25.396,25.396,25.667,25.062,25.667z M7.542,24.458h16.916V6.333H7.542V24.458z"></path>
        </g>
        <g>
          <path  d="M16.102,3.312c-0.335,0-0.604,0.27-0.604,0.604c0,0.334,0.27,0.604,0.604,0.604
				c0.334,0,0.604-0.27,0.604-0.604C16.705,3.583,16.434,3.312,16.102,3.312L16.102,3.312z"></path>
        </g>
      </g>
    </g>
  </g>
  <g id="laptop-macbook" data-iconmelon="Streamline Icon Set:a2d1969475bc9ecfd6655095679f5353">
    <g id="Expanded">
      <g>
        <g>
          <path  d="M30,27.334H2c-1.103,0-2-0.896-2-2V24c0-0.367,0.298-0.666,0.667-0.666h30.667
				C31.702,23.334,32,23.633,32,24v1.334C32,26.438,31.103,27.334,30,27.334z M1.333,24.668v0.666C1.333,25.701,1.632,26,2,26h28
				c0.368,0,0.667-0.299,0.667-0.666v-0.666H1.333z"></path>
        </g>
        <g>
          <path  d="M27.333,22H4.667c-1.103,0-2-0.896-2-2V6.667c0-1.103,0.897-2,2-2h22.667c1.104,0,2,0.897,2,2V20
				C29.333,21.104,28.437,22,27.333,22z M4.667,6C4.299,6,4,6.299,4,6.667V20c0,0.367,0.299,0.668,0.667,0.668h22.667
				C27.701,20.668,28,20.367,28,20V6.667C28,6.299,27.701,6,27.333,6H4.667z"></path>
        </g>
        <g>
          <path  d="M26.667,19.334H5.333v-12h21.333V19.334z M6.667,18h18.667V8.666H6.667V18z"></path>
        </g>
      </g>
    </g>
  </g>
  <g id="macintosh" data-iconmelon="Streamline Icon Set:086073816c261698f29db097b81d10b8">
    <g id="Expanded">
      <g>
        <g>
          <path  d="M27.333,32H4.667C4.299,32,4,31.701,4,31.334v-4.001c0-0.368,0.299-0.667,0.667-0.667h22.667
				c0.368,0,0.667,0.299,0.667,0.667v4.001C28,31.701,27.701,32,27.333,32z M5.333,30.666h21.333V28H5.333V30.666z"></path>
        </g>
        <g>
          <path  d="M27.333,28H4.667c-1.102,0-2-0.897-2-2V4c0-2.206,1.794-4,4-4h18.667c2.206,0,4,1.794,4,4v22
				C29.333,27.103,28.437,28,27.333,28z M6.667,1.333C5.196,1.333,4,2.529,4,4v22c0,0.367,0.3,0.666,0.667,0.666h22.667
				C27.701,26.666,28,26.367,28,26V4c0-1.471-1.196-2.667-2.667-2.667H6.667z"></path>
        </g>
        <g>
          <path  d="M24.461,20H7.539c-1.216,0-2.206-0.843-2.206-1.879V4.545c0-1.036,0.989-1.878,2.206-1.878h16.923
				c1.215,0,2.204,0.842,2.204,1.878v13.576C26.666,19.157,25.677,20,24.461,20z M7.539,4C7.025,4,6.667,4.288,6.667,4.545v13.576
				c0,0.258,0.358,0.546,0.873,0.546h16.923c0.514,0,0.871-0.288,0.871-0.546V4.545C25.333,4.288,24.976,4,24.461,4H7.539z"></path>
        </g>
        <g>
          <path  d="M9.333,24H6.667C6.299,24,6,23.701,6,23.333s0.299-0.666,0.667-0.666h2.667
				c0.368,0,0.667,0.298,0.667,0.666S9.701,24,9.333,24z"></path>
        </g>
        <g>
          <path  d="M25.333,24h-6.666C18.299,24,18,23.701,18,23.333s0.299-0.666,0.667-0.666h6.666
				c0.368,0,0.667,0.298,0.667,0.666S25.701,24,25.333,24z"></path>
        </g>
        <g>
          <path  d="M11.333,10.667c-0.368,0-0.667-0.299-0.667-0.667V7.333c0-0.368,0.298-0.667,0.667-0.667
				C11.701,6.667,12,6.966,12,7.333V10C12,10.368,11.701,10.667,11.333,10.667z"></path>
        </g>
        <g>
          <path  d="M20.666,10.667C20.299,10.667,20,10.368,20,10V7.333c0-0.368,0.299-0.667,0.666-0.667
				c0.368,0,0.668,0.299,0.668,0.667V10C21.334,10.368,21.034,10.667,20.666,10.667z"></path>
        </g>
        <g>
          <path  d="M16.666,13.333h-1.333c-0.368,0-0.667-0.298-0.667-0.667c0-0.368,0.299-0.667,0.667-0.667H16V8.667
				C16,8.299,16.299,8,16.666,8c0.368,0,0.667,0.299,0.667,0.667v4C17.333,13.035,17.034,13.333,16.666,13.333z"></path>
        </g>
        <g>
          <path  d="M18,17.333h-4c-1.103,0-2-0.897-2-2c0-0.368,0.299-0.667,0.667-0.667c0.368,0,0.667,0.299,0.667,0.667
				c0,0.367,0.3,0.667,0.667,0.667h4c0.367,0,0.667-0.299,0.667-0.667c0-0.368,0.299-0.667,0.666-0.667
				c0.368,0,0.667,0.299,0.667,0.667C20,16.436,19.103,17.333,18,17.333z"></path>
        </g>
      </g>
    </g>
  </g>
  <g id="magic-magic-wand" data-iconmelon="Streamline Icon Set:c39a352649068bbf552963e6a1435b8a">
    <g id="Expanded">
      <g>
        <g>
          <path  d="M0.761,32c-0.195,0-0.39-0.075-0.538-0.224c-0.298-0.297-0.298-0.778,0-1.076l20.453-20.452
				c0.298-0.297,0.779-0.297,1.076,0c0.298,0.298,0.298,0.779,0,1.077L1.299,31.776C1.151,31.925,0.956,32,0.761,32z"></path>
        </g>
        <g>
          <path  d="M21.018,1.294l3.694,3.693l5.167-2.731l-2.732,5.168l3.558,3.558L26,9.878l-2.583,5.537l-0.743-5.953
				l-5.953-0.744l5.536-2.585L21.018,1.294 M21.018,0c-0.219,0-0.439,0.056-0.641,0.17c-0.505,0.288-0.756,0.88-0.612,1.445
				l0.974,3.798l-4.563,2.131c-0.521,0.244-0.821,0.805-0.731,1.374c0.09,0.569,0.545,1.011,1.118,1.083l4.954,0.619l0.619,4.954
				c0.072,0.572,0.514,1.028,1.083,1.118c0.068,0.011,0.136,0.017,0.203,0.017c0.495,0,0.957-0.287,1.171-0.748l2.139-4.583
				l3.68,0.863c0.1,0.022,0.198,0.034,0.296,0.034c0.463,0,0.898-0.248,1.131-0.664c0.28-0.506,0.193-1.136-0.216-1.545
				l-2.882-2.882l2.287-4.323c0.265-0.501,0.172-1.118-0.23-1.52c-0.249-0.249-0.579-0.379-0.915-0.379
				c-0.206,0-0.414,0.049-0.604,0.149l-4.323,2.285l-3.02-3.019C21.684,0.13,21.353,0,21.018,0L21.018,0z"></path>
        </g>
      </g>
    </g>
  </g>
  <g id="settings-gear" data-iconmelon="Streamline Icon Set:1fdcd4b9f16216cb7ee964b23a239eb1">
    <g id="Expanded">
      <g>
        <g>
          <path  d="M17.333,32h-2.667c-1.103,0-2-0.897-2-2v-2.483c-0.853-0.246-1.675-0.587-2.454-1.018l-1.756,1.757
				c-0.756,0.756-2.072,0.755-2.829,0l-1.886-1.885c-0.378-0.378-0.586-0.88-0.586-1.414s0.208-1.037,0.586-1.414l1.757-1.758
				c-0.43-0.777-0.771-1.599-1.017-2.452H2c-1.103,0-2-0.898-2-2v-2.667c0-0.535,0.208-1.037,0.585-1.414
				c0.378-0.377,0.88-0.586,1.415-0.586h2.483c0.246-0.852,0.586-1.674,1.017-2.453L3.744,8.457c-0.78-0.78-0.78-2.048,0-2.828
				l1.885-1.886c0.755-0.755,2.073-0.756,2.829,0L10.214,5.5c0.779-0.43,1.601-0.771,2.452-1.017V2c0-1.103,0.897-2,2-2h2.667
				c1.104,0,2,0.897,2,2v2.483c0.854,0.246,1.675,0.587,2.452,1.017l1.757-1.757c0.756-0.755,2.072-0.756,2.829,0l1.886,1.885
				c0.378,0.377,0.586,0.88,0.586,1.414c0,0.534-0.208,1.037-0.586,1.414l-1.756,1.756c0.43,0.779,0.771,1.6,1.018,2.454H30
				c1.103,0,2,0.897,2,2v2.667c0,0.534-0.208,1.037-0.585,1.414S30.534,19.333,30,19.333h-2.483
				c-0.246,0.854-0.587,1.675-1.017,2.453l1.756,1.757c0.78,0.78,0.78,2.048,0,2.828l-1.885,1.886c-0.757,0.755-2.073,0.755-2.829,0
				L21.786,26.5c-0.778,0.431-1.6,0.771-2.452,1.017V30C19.333,31.103,18.437,32,17.333,32z M10.105,24.999
				c0.119,0,0.24,0.031,0.347,0.098c0.944,0.576,1.966,1.001,3.038,1.26c0.3,0.073,0.51,0.34,0.51,0.648V30
				c0,0.368,0.299,0.667,0.667,0.667h2.667C17.7,30.667,18,30.368,18,30v-2.995c0-0.309,0.211-0.575,0.511-0.648
				c1.07-0.259,2.092-0.682,3.036-1.26c0.265-0.16,0.602-0.12,0.819,0.098l2.119,2.119c0.25,0.249,0.693,0.25,0.943,0l1.885-1.887
				c0.261-0.26,0.261-0.682,0-0.942l-2.119-2.119c-0.218-0.217-0.258-0.557-0.097-0.819c0.577-0.943,1-1.965,1.259-3.037
				c0.072-0.299,0.34-0.511,0.648-0.511H30c0.179,0,0.347-0.069,0.472-0.195c0.126-0.124,0.195-0.291,0.195-0.47v-2.667
				c0-0.368-0.3-0.667-0.667-0.667h-2.995c-0.309,0-0.576-0.211-0.648-0.511c-0.259-1.071-0.682-2.094-1.259-3.038
				c-0.161-0.262-0.121-0.601,0.097-0.819l2.119-2.12c0.125-0.125,0.195-0.296,0.195-0.471c0-0.176-0.07-0.348-0.195-0.472
				l-1.885-1.885c-0.253-0.251-0.691-0.251-0.944,0l-2.119,2.12c-0.217,0.219-0.556,0.259-0.819,0.097
				c-0.941-0.576-1.963-1-3.035-1.259C18.211,5.571,18,5.303,18,4.996V2c0-0.368-0.3-0.667-0.667-0.667h-2.667
				C14.299,1.333,14,1.632,14,2v2.996c0,0.308-0.21,0.575-0.51,0.647c-1.07,0.259-2.092,0.682-3.037,1.26
				c-0.263,0.161-0.602,0.121-0.818-0.098l-2.12-2.119c-0.252-0.251-0.691-0.251-0.943,0L4.687,6.571c-0.26,0.26-0.26,0.683,0,0.943
				l2.12,2.119c0.218,0.217,0.258,0.557,0.097,0.819c-0.577,0.944-1,1.966-1.259,3.037C5.572,13.789,5.304,14,4.996,14H2
				c-0.178,0-0.346,0.069-0.472,0.195c-0.125,0.125-0.194,0.292-0.194,0.471v2.667c0,0.367,0.299,0.666,0.667,0.666h2.996
				c0.308,0,0.576,0.211,0.647,0.512c0.26,1.071,0.683,2.094,1.26,3.036c0.161,0.263,0.121,0.601-0.098,0.819l-2.119,2.119
				c-0.124,0.125-0.195,0.297-0.195,0.472c0,0.176,0.071,0.348,0.195,0.472l1.886,1.885c0.251,0.252,0.691,0.252,0.943,0
				l2.119-2.119C9.762,25.065,9.932,24.999,10.105,24.999z"></path>
        </g>
        <g>
          <path  d="M16,22.667c-3.676,0-6.667-2.991-6.667-6.667c0-3.676,2.99-6.667,6.667-6.667
				c3.676,0,6.667,2.99,6.667,6.667C22.667,19.676,19.677,22.667,16,22.667z M16,10.667c-2.941,0-5.333,2.393-5.333,5.333
				c0,2.94,2.393,5.333,5.333,5.333c2.94,0,5.333-2.393,5.333-5.333C21.333,13.059,18.941,10.667,16,10.667z"></path>
        </g>
      </g>
    </g>
  </g>
  <g id="synk-refresh-rotate" data-iconmelon="Streamline Icon Set:100b737f02623ae5d75873529d623bf5">
    <g id="Expanded">
      <g>
        <g>
          <path  d="M5.08,19.303c-0.194,0-0.38-0.084-0.509-0.232l-4.407-5.084c-0.243-0.281-0.212-0.706,0.068-0.949
				c0.281-0.243,0.706-0.212,0.95,0.068L5,17.512l3.161-4.901c0.202-0.312,0.618-0.401,0.931-0.201
				c0.312,0.202,0.402,0.619,0.202,0.931l-3.649,5.654c-0.115,0.179-0.307,0.292-0.519,0.307C5.11,19.302,5.095,19.303,5.08,19.303z
				"></path>
        </g>
        <g>
          <path  d="M31.327,20.97c-0.216,0-0.43-0.104-0.558-0.297l-3.25-4.843l-3.739,4.476
				c-0.238,0.286-0.662,0.323-0.948,0.086c-0.285-0.239-0.322-0.663-0.085-0.948l4.314-5.165c0.136-0.163,0.335-0.258,0.552-0.241
				c0.211,0.012,0.405,0.122,0.522,0.297l3.749,5.587c0.208,0.309,0.126,0.727-0.183,0.934C31.587,20.933,31.458,20.97,31.327,20.97
				z"></path>
        </g>
        <g>
          <path  d="M16.183,28.115c-3.142,0-6.18-1.226-8.485-3.499c-0.265-0.261-0.267-0.687-0.007-0.951
				c0.261-0.265,0.687-0.267,0.952-0.007c2.661,2.623,6.416,3.675,10.045,2.818c5.308-1.255,8.842-6.279,8.223-11.688
				c-0.043-0.37,0.223-0.703,0.591-0.745c0.373-0.046,0.704,0.222,0.745,0.592c0.697,6.086-3.278,11.739-9.248,13.151
				C18.061,28.007,17.117,28.115,16.183,28.115z"></path>
        </g>
        <g>
          <path  d="M5.079,19.303c-0.305,0-0.581-0.209-0.654-0.519c-0.745-3.148-0.219-6.398,1.48-9.15
				c1.7-2.753,4.37-4.679,7.519-5.424c4.354-1.026,8.896,0.415,11.863,3.765c0.246,0.279,0.22,0.704-0.059,0.95
				c-0.277,0.245-0.703,0.22-0.949-0.058c-2.638-2.979-6.679-4.262-10.545-3.347C10.935,6.181,8.561,7.894,7.05,10.34
				c-1.51,2.447-1.979,5.335-1.316,8.134c0.085,0.363-0.139,0.725-0.5,0.812C5.182,19.297,5.13,19.303,5.079,19.303z"></path>
        </g>
      </g>
    </g>
  </g>
  <g id="umbrella-weather" data-iconmelon="Streamline Icon Set:7cc055ac439b158f2e282b3a56339cb6">
    <g id="Expanded">
      <g>
        <g>
          <path  d="M31.317,20.251c-0.304,0-0.573-0.207-0.647-0.507c-0.025-0.102-0.579-2.16-2.669-2.16
				c-2.211,0-3.393,2.276-3.405,2.3c-0.113,0.225-0.344,0.366-0.595,0.366c-0.001,0-0.001,0-0.002,0
				c-0.251-0.001-0.482-0.143-0.595-0.368c-0.011-0.021-1.192-2.298-3.404-2.298c-2.211,0-3.392,2.276-3.405,2.3
				c-0.125,0.247-0.396,0.389-0.669,0.361c-0.276-0.031-0.505-0.23-0.573-0.5c-0.022-0.083-0.607-2.161-3.354-2.161
				c-2.781,0-3.349,2.14-3.354,2.161C8.571,20.042,8.306,20.251,8,20.251s-0.573-0.209-0.647-0.506
				c-0.022-0.083-0.607-2.161-3.354-2.161c-0.929,0-1.627,0.23-2.079,0.682c-0.561,0.565-0.571,1.307-0.571,1.313
				c0.002,0.363-0.287,0.662-0.65,0.672c-0.36,0.002-0.667-0.274-0.683-0.638c-0.194-4.4,1.375-8.575,4.421-11.757
				C7.485,4.67,11.592,2.915,16,2.915c4.408,0,8.515,1.755,11.563,4.941c3.045,3.182,4.614,7.357,4.42,11.757
				c-0.014,0.331-0.271,0.603-0.602,0.634C31.361,20.249,31.339,20.251,31.317,20.251z M20,16.25c1.978,0,3.301,1.229,4.001,2.124
				c0.7-0.895,2.023-2.124,4-2.124c1.101,0,1.944,0.395,2.568,0.931c-0.363-3.144-1.732-6.066-3.969-8.403
				c-2.796-2.92-6.56-4.529-10.6-4.529S8.195,5.857,5.4,8.778c-2.175,2.273-3.528,5.099-3.936,8.145
				c0.662-0.446,1.511-0.673,2.535-0.673c2.035,0,3.302,0.925,4,1.865c0.699-0.94,1.965-1.865,4-1.865
				c2.134,0,3.422,1.016,4.098,2.002C16.821,17.373,18.111,16.25,20,16.25z"></path>
        </g>
        <g>
          <path  d="M16,4.249c-0.368,0-0.667-0.298-0.667-0.667V0.915c0-0.369,0.299-0.667,0.667-0.667
				c0.368,0,0.667,0.298,0.667,0.667v2.667C16.667,3.951,16.368,4.249,16,4.249z"></path>
        </g>
        <g>
          <path  d="M17.667,31.752c-1.16,0-2.333-0.744-2.333-2.167V19.584c0-0.369,0.299-0.667,0.667-0.667
				c0.368,0,0.667,0.298,0.667,0.667v10.001c0,0.811,0.898,0.834,1,0.834s1-0.023,1-0.834c0-0.368,0.298-0.667,0.667-0.667
				c0.367,0,0.666,0.299,0.666,0.667C20,31.008,18.826,31.752,17.667,31.752z"></path>
        </g>
      </g>
    </g>
  </g>
  <g id="handle-vector" data-iconmelon="Streamline Icon Set:da851cfd86bcc245db14e6266e6f2c4e">
    <g id="Expanded">
      <g>
        <g>
          <rect x="28" y="6"  width="1.333" height="20"></rect>
        </g>
        <g>
          <rect x="6" y="2.667"  width="20" height="1.333"></rect>
        </g>
        <g>
          <rect x="3.333" y="6"  width="1.333" height="20"></rect>
        </g>
        <g>
          <rect x="6" y="28"  width="20" height="1.333"></rect>
        </g>
        <g>
          <path  d="M6.667,6.667H0V0h6.667V6.667z M1.333,5.333h4v-4h-4V5.333z"></path>
        </g>
        <g>
          <path  d="M32,6.667h-6.667V0H32V6.667z M26.667,5.333h4v-4h-4V5.333z"></path>
        </g>
        <g>
          <path  d="M6.667,32H0v-6.667h6.667V32z M1.333,30.667h4v-4h-4V30.667z"></path>
        </g>
        <g>
          <path  d="M32,32h-6.667v-6.667H32V32z M26.667,30.667h4v-4h-4V30.667z"></path>
        </g>
      </g>
    </g>
  </g>
  <g id="arrow-target" data-iconmelon="Streamline Icon Set:b90a6e2a47161b69a5ddbea533086f5f">
    <g id="Expanded">
      <g>
        <g>
          <path  d="M12.521,18.087c-0.768,0-1.391,0.624-1.391,1.392s0.624,1.391,1.391,1.391
				c0.768,0,1.392-0.623,1.392-1.391S13.29,18.087,12.521,18.087L12.521,18.087z"></path>
        </g>
        <g>
          <g>
            <path  d="M12.521,16.695c1.535,0,2.783,1.248,2.783,2.783c0,1.534-1.248,2.782-2.783,2.782
					c-1.534,0-2.782-1.248-2.782-2.782C9.739,17.943,10.987,16.695,12.521,16.695 M12.521,15.304c-2.305,0-4.174,1.87-4.174,4.174
					c0,2.306,1.869,4.174,4.174,4.174c2.305,0,4.174-1.868,4.174-4.174S14.826,15.304,12.521,15.304L12.521,15.304z"></path>
          </g>
        </g>
        <g>
          <g>
            <path  d="M12.521,12.522c3.836,0,6.957,3.121,6.957,6.957c0,3.835-3.121,6.956-6.957,6.956
					c-3.835,0-6.956-3.121-6.956-6.956C5.565,15.643,8.686,12.522,12.521,12.522 M12.521,11.13c-4.61,0-8.348,3.738-8.348,8.348
					c0,4.609,3.738,8.348,8.348,8.348c4.61,0,8.348-3.738,8.348-8.348C20.869,14.868,17.132,11.13,12.521,11.13L12.521,11.13z"></path>
          </g>
        </g>
        <g>
          <g>
            <path  d="M12.521,8.348c6.138,0,11.131,4.993,11.131,11.13c0,6.137-4.993,11.13-11.131,11.13
					c-6.137,0-11.13-4.993-11.13-11.13C1.392,13.341,6.385,8.348,12.521,8.348 M12.521,6.957C5.607,6.957,0,12.563,0,19.479
					C0,26.393,5.607,32,12.521,32c6.914,0,12.521-5.607,12.521-12.521C25.043,12.563,19.436,6.957,12.521,6.957L12.521,6.957z"></path>
          </g>
        </g>
        <g>
          <rect x="19.478" y="1.004" transform="matrix(-0.7069 -0.7073 0.7073 -0.7069 26.0707 34.4545)"  width="1.391" height="21.643"></rect>
        </g>
        <g>
          <g>
            <path  d="M27.13,2.025v1.453V4.87h1.392h1.45C29.06,6.881,27.573,9.21,26.034,9.21
					c-0.625,0-1.33-0.387-2.094-1.15c-1.374-1.374-1.172-2.202-1.104-2.474C23.174,4.207,25.229,2.884,27.13,2.025 M28.521,0
					c0,0-11.13,3.479-5.565,9.043c1.113,1.113,2.143,1.559,3.078,1.559c3.739,0,5.966-7.124,5.966-7.124h-3.479V0L28.521,0z"></path>
          </g>
        </g>
        <g>
          <rect x="24.348" y="2.087"  width="1.392" height="4.87"></rect>
        </g>
        <g>
          <path  d="M0.696,32c-0.178,0-0.356-0.068-0.492-0.204c-0.272-0.271-0.272-0.712,0-0.983l2.972-2.972
				c0.272-0.272,0.711-0.272,0.983,0c0.272,0.271,0.272,0.711,0,0.983l-2.972,2.972C1.052,31.932,0.874,32,0.696,32z"></path>
        </g>
        <g>
          <path  d="M24.348,32c-0.178,0-0.356-0.068-0.492-0.204l-2.973-2.973c-0.271-0.271-0.271-0.711,0-0.983
				c0.272-0.272,0.712-0.272,0.984,0l2.973,2.973c0.271,0.271,0.271,0.712,0,0.983C24.704,31.932,24.525,32,24.348,32z"></path>
        </g>
      </g>
    </g>
  </g>
</svg>